<svg xmlns="http://www.w3.org/2000/svg" viewBox="0 17.2 480 140.3">
  <defs><clipPath id="clip-gg8rqy"><rect x="0" y="17.2" width="480" height="93.7"/></clipPath></defs>
  <g clip-path="url(#clip-gg8rqy)">
    <path d="M36.12 116.06L8.17 116.06L8.17 12.94L36.12 12.94Q47.37 12.94 52.50 18.42Q57.62 23.89 57.62 36.49L57.62 41Q57.62 48.27 55.02 52.78Q52.41 57.29 47.08 58.70Q54.05 60.46 56.42 66.93Q58.80 73.41 58.80 82.72Q58.80 92.74 56.92 100.24Q55.05 107.74 50.12 111.90Q45.20 116.06 36.12 116.06M28.33 28.88L28.33 51.79L32.55 51.79Q35.42 51.79 36.24 49.56Q37.06 47.33 37.06 44.23L37.06 33.86Q37.06 28.88 32.66 28.88L28.33 28.88M30.38 97.90Q38.40 97.90 38.40 90.28L38.40 77.39Q38.40 73 37.09 70.45Q35.77 67.90 32.14 67.90L28.33 67.90L28.33 97.78Q29.62 97.90 30.38 97.90 M108.19 116.06L65.59 116.06L65.59 12.94L106.84 12.94L106.84 32.86L86.57 32.86L86.57 52.96L106.02 52.96L106.02 72.35L86.57 72.35L86.57 95.96L108.19 95.96 M135.14 116.06L114.99 116.06L114.99 12.94L136.20 12.94L145.69 62.33L145.69 12.94L165.61 12.94L165.61 116.06L145.46 116.06L135.14 64.50" fill="#1a1a1a"/>
    <path d="M198.78 117Q187.58 117 180.76 110.03Q173.93 103.05 173.93 90.52L173.93 42.94Q173.93 27.94 179.88 19.97Q185.83 12 199.24 12Q206.57 12 212.28 14.70Q217.99 17.39 221.28 22.75Q224.56 28.11 224.56 36.26L224.56 54.07L204.05 54.07L204.05 38.84Q204.05 34.21 202.88 32.60Q201.71 30.98 199.24 30.98Q196.37 30.98 195.38 33.06Q194.38 35.14 194.38 38.60L194.38 90.22Q194.38 94.50 195.64 96.26Q196.90 98.02 199.24 98.02Q201.88 98.02 202.97 95.85Q204.05 93.68 204.05 90.22L204.05 71.65L224.79 71.65L224.79 91.16Q224.79 104.75 217.94 110.88Q211.08 117 198.78 117 M252.15 116.06L231.65 116.06L231.65 12.94L252.15 12.94L252.15 49.79L261.88 49.79L261.88 12.94L282.39 12.94L282.39 116.06L261.88 116.06L261.88 69.30L252.15 69.30 M310.51 116.06L290.59 116.06L290.59 12.94L310.51 12.94 M360.55 116.06L318.72 116.06L318.72 12.94L339.34 12.94L339.34 98.48L360.55 98.48 M394.07 116.06L366.41 116.06L366.41 12.94L394.77 12.94Q405.90 12.94 411.53 19.12Q417.15 25.30 417.15 37.20L417.15 85.48Q417.15 100.13 412.03 108.09Q406.90 116.06 394.07 116.06M387.15 30.98L387.15 97.84L390.73 97.84Q396.41 97.84 396.41 92.33L396.41 39.13Q396.41 33.97 395.04 32.48Q393.66 30.98 389.44 30.98 M450.08 117Q435.96 117 429.72 109.97Q423.48 102.94 423.48 87.59L423.48 77.51L443.87 77.51L443.87 90.40Q443.87 93.97 444.96 95.99Q446.04 98.02 448.74 98.02Q451.55 98.02 452.63 96.38Q453.72 94.73 453.72 90.98Q453.72 86.24 452.78 83.04Q451.84 79.85 449.53 76.95Q447.21 74.05 443.11 70.18L433.85 61.39Q423.48 51.61 423.48 39.01Q423.48 25.83 429.61 18.91Q435.73 12 447.33 12Q461.51 12 467.46 19.56Q473.40 27.12 473.40 42.53L452.43 42.53L452.43 35.44Q452.43 33.33 451.23 32.16Q450.03 30.98 447.98 30.98Q445.51 30.98 444.37 32.36Q443.23 33.74 443.23 35.91Q443.23 38.07 444.40 40.59Q445.57 43.11 449.03 46.39L460.92 57.82Q464.50 61.22 467.49 65Q470.48 68.78 472.29 73.79Q474.11 78.80 474.11 86Q474.11 100.54 468.75 108.77Q463.39 117 450.08 117" fill="#1c5f8a"/>
  </g>
  <path d="M127.50 150.06L123.01 150.06L123.01 127.72L131.94 127.72L131.94 132.07L127.50 132.07L127.50 135.63L131.71 135.63L131.71 139.93L127.50 139.93 M147.49 150.06L143.17 150.06L143.17 127.72L147.49 127.72 M168.33 150.06L159.27 150.06L159.27 127.72L163.74 127.72L163.74 146.25L168.33 146.25 M183.64 150.06L179.60 150.06L179.60 127.72L186.41 127.72L188.29 141.34L190.15 127.72L197.02 127.72L197.02 150.06L192.93 150.06L192.93 133.96L190.37 150.06L186.36 150.06L183.64 133.96  M229 150.33Q226.92 150.33 225.74 148.72Q224.55 147.10 224.55 144.27Q224.55 142.25 224.91 140.92Q225.27 139.59 225.92 138.70Q226.57 137.81 227.40 137.15L227.30 136.90Q226.77 135.58 226.37 134.38Q225.97 133.18 225.97 131.91Q225.97 130.63 226.52 129.64Q227.06 128.65 228.03 128.08Q229 127.52 230.26 127.52Q231.51 127.52 232.53 128.06Q233.55 128.59 234.16 129.67Q234.77 130.75 234.77 132.40Q234.77 134.19 234.10 135.40Q233.43 136.61 232.10 137.72L233.32 140.79Q234.07 138.90 235.48 137.86L237.24 140.62Q235.77 141.80 234.78 144.46L237.02 150.06L232.70 150.06L232.20 148.86Q231.71 149.47 230.88 149.90Q230.05 150.33 229 150.33M229.96 131.51Q229.96 131.84 230.12 132.49Q230.29 133.13 230.90 134.70Q231.14 134.45 231.33 133.90Q231.52 133.36 231.52 132.40Q231.52 131.43 231.28 131.03Q231.05 130.64 230.67 130.64Q230.30 130.64 230.13 130.91Q229.96 131.18 229.96 131.51M228.43 143.80L228.43 144.82Q228.43 147.08 229.72 147.08Q230.24 147.08 230.55 146.69Q230.87 146.30 230.98 145.89L228.85 140.69Q228.43 141.58 228.43 143.80  M272.86 150.06L266.77 150.06L264.01 127.71L268.26 127.71L269.90 142.92L271.36 127.71L275.61 127.71 M291.02 150.06L286.71 150.06L286.71 127.72L291.02 127.72 M308.79 150.06L302.80 150.06L302.80 127.72L308.94 127.72Q311.36 127.72 312.57 129.06Q313.79 130.40 313.79 132.97L313.79 143.44Q313.79 146.61 312.68 148.34Q311.57 150.06 308.79 150.06M307.29 131.63L307.29 146.11L308.07 146.11Q309.30 146.11 309.30 144.92L309.30 133.39Q309.30 132.28 309 131.95Q308.70 131.63 307.79 131.63 M334.85 150.06L325.62 150.06L325.62 127.72L334.56 127.72L334.56 132.04L330.17 132.04L330.17 136.39L334.38 136.39L334.38 140.59L330.17 140.59L330.17 145.71L334.85 145.71 M351.66 150.27Q348.98 150.27 347.56 148.65Q346.15 147.03 346.15 143.97L346.15 133.36Q346.15 130.49 347.55 129Q348.95 127.52 351.66 127.52Q354.36 127.52 355.76 129Q357.17 130.49 357.17 133.36L357.17 143.97Q357.17 147.03 355.75 148.65Q354.33 150.27 351.66 150.27M351.69 146.15Q352.71 146.15 352.71 144.18L352.71 133.28Q352.71 131.63 351.72 131.63Q350.60 131.63 350.60 133.32L350.60 144.21Q350.60 145.25 350.86 145.70Q351.11 146.15 351.69 146.15" fill="#1a1a1a"/>
</svg>